<svg xmlns="http://www.w3.org/2000/svg" width="1600" height="900" viewBox="0 0 1600 900">
<rect width="1600" height="900" fill="#FFFFFF"/>
<line x1="96" y1="90" x2="1504" y2="90" stroke="#DCE6F0" stroke-width="2"/>
<line x1="96" y1="810" x2="1504" y2="810" stroke="#DCE6F0" stroke-width="2"/>
<rect x="640" y="128" width="320" height="50" rx="25" fill="#9C113B"/>
<text x="800" y="161" text-anchor="middle" font-size="26" font-weight="700" fill="#FFFFFF" font-family="Microsoft YaHei, PingFang SC, sans-serif">第 4 课 · AI时代领导力</text>
<text x="800" y="240" text-anchor="middle" font-size="54" font-weight="700" fill="#1E477C" font-family="Microsoft YaHei, PingFang SC, sans-serif">四个常见陷阱</text>
<rect x="165" y="380" width="1270" height="94" rx="28" fill="#F5F8FC" stroke="#DCE6F0" stroke-width="2"/>
<circle cx="211" cy="427.0" r="24" fill="#9C113B"/>
<text x="211" y="435.0" text-anchor="middle" font-size="24" font-weight="700" fill="#FFFFFF" font-family="Microsoft YaHei, PingFang SC, sans-serif">1</text>
<text x="257" y="407.0" font-size="34" font-weight="700" fill="#1E477C" font-family="Microsoft YaHei, PingFang SC, sans-serif">过度依赖 AI：把本该由人做的重大判断也交出去，最后组织会失去判</text>
<text x="257" y="445.0" font-size="34" font-weight="700" fill="#1E477C" font-family="Microsoft YaHei, PingFang SC, sans-serif">断力</text>
<rect x="165" y="488" width="1270" height="94" rx="28" fill="#F5F8FC" stroke="#DCE6F0" stroke-width="2"/>
<circle cx="211" cy="535.0" r="24" fill="#9C113B"/>
<text x="211" y="543.0" text-anchor="middle" font-size="24" font-weight="700" fill="#FFFFFF" font-family="Microsoft YaHei, PingFang SC, sans-serif">2</text>
<text x="257" y="541.0" font-size="34" font-weight="700" fill="#1E477C" font-family="Microsoft YaHei, PingFang SC, sans-serif">完全忽视 AI：坚持旧做法不升级，团队效率和竞争力会被快速拉开</text>
<rect x="165" y="596" width="1270" height="94" rx="28" fill="#F5F8FC" stroke="#DCE6F0" stroke-width="2"/>
<circle cx="211" cy="643.0" r="24" fill="#9C113B"/>
<text x="211" y="651.0" text-anchor="middle" font-size="24" font-weight="700" fill="#FFFFFF" font-family="Microsoft YaHei, PingFang SC, sans-serif">3</text>
<text x="257" y="623.0" font-size="34" font-weight="700" fill="#1E477C" font-family="Microsoft YaHei, PingFang SC, sans-serif">把 AI 当替代人而不是增强人，再加上忽略偏见、隐私和伦理问题，都会</text>
<text x="257" y="661.0" font-size="34" font-weight="700" fill="#1E477C" font-family="Microsoft YaHei, PingFang SC, sans-serif">埋下更大风险</text>
</svg>